{"title":"robert calvert - captain lockheed and the starfighters [1974-V0]","uid":3912707,"size":78059692,"categoryP":"audio","categoryS":"music","magnet":"?xt=urn:btih:0bf485c360f8c2ea0fc609784a92b3586410966b&amp;dn=robert+calvert+-+captain+lockheed+and+the+starfighters+%5B1974-V0%5D&amp;tr=udp%3A%2F%2Ftracker.openbittorrent.com%3A80&amp;tr=udp%3A%2F%2Fopen.demonii.com%3A1337&amp;tr=udp%3A%2F%2Ftracker.coppersurfer.tk%3A6969&amp;tr=udp%3A%2F%2Fexodus.desync.com%3A6969","seeders":0,"leechers":1,"uploader":"TotallyWicked","files":20,"time":1196262720,"description":"EAC extraction logfile from 10. December 2006, 9:04 for CD\nRob Calvert / Captain Lockheed and the Starfighters\n\nUsed drive  : SAMSUNG CD-R/RW SW-252F   Adapter: 1  ID: 0\nRead mode   : Secure with NO C2, accurate stream, disable cache\nRead offset correction : 145\nOverread into Lead-In and Lead-Out : No\n\nUsed output format : Internal WAV Routines\n                     44.100 Hz; 16 Bit; Stereo\n\nOther options      : \n    Fill up missing offset samples with silence : Yes\n    Delete leading and trailing silent blocks : No\n    Native Win32 interface for Win NT &amp; 2000\n\n\nTrack  1\n     Filename C:\\Documents and Settings\\NAAM\\Mijn documenten\\Mijn muziek\\01-(Dialogue 1) Franz Joseph Strauss.....wav\n\n     Pre-gap length  0:00:02.42\n\n     Peak level 91.1 %\n     Track quality 100.0 %\n     Test CRC D855C709\n     Copy CRC D855C709\n     Copy OK\n\nTrack  2\n     Filename C:\\Documents and Settings\\NAAM\\Mijn documenten\\Mijn muziek\\02-The Aerospaceage Inferno.wav\n\n     Peak level 100.0 %\n     Track quality 100.0 %\n     Test CRC 874BEAAE\n     Copy CRC 874BEAAE\n     Copy OK\n\nTrack  3\n     Filename C:\\Documents and Settings\\NAAM\\Mijn documenten\\Mijn muziek\\03-(Dialogue 2) Aircraft Salesman.wav\n\n     Pre-gap length  0:00:00.60\n\n     Peak level 80.9 %\n     Track quality 100.0 %\n     Test CRC B2389F0E\n     Copy CRC B2389F0E\n     Copy OK\n\nTrack  4\n     Filename C:\\Documents and Settings\\NAAM\\Mijn documenten\\Mijn muziek\\04-The Widow Maker.wav\n\n     Peak level 99.0 %\n     Track quality 100.0 %\n     Test CRC C4FAF363\n     Copy CRC C4FAF363\n     Copy OK\n\nTrack  5\n     Filename C:\\Documents and Settings\\NAAM\\Mijn documenten\\Mijn muziek\\05-(Dialogue 3) Two test pilots....wav\n\n     Peak level 96.4 %\n     Track quality 100.0 %\n     Test CRC E9531B54\n     Copy CRC E9531B54\n     Copy OK\n\nTrack  6\n     Filename C:\\Documents and Settings\\NAAM\\Mijn documenten\\Mijn muziek\\06-The Right Stuff.wav\n\n     Peak level 95.1 %\n     Track quality 100.0 %\n     Test CRC C24AAB1B\n     Copy CRC C24AAB1B\n     Copy OK\n\nTrack  7\n     Filename C:\\Documents and Settings\\NAAM\\Mijn documenten\\Mijn muziek\\07-(Dialogue 4) Board meeting.wav\n\n     Peak level 100.0 %\n     Track quality 100.0 %\n     Test CRC 530255EB\n     Copy CRC 530255EB\n     Copy OK\n\nTrack  8\n     Filename C:\\Documents and Settings\\NAAM\\Mijn documenten\\Mijn muziek\\08-The Song of the Gremlin (part 1).wav\n\n     Peak level 100.0 %\n     Track quality 100.0 %\n     Test CRC 9B9105AE\n     Copy CRC 9B9105AE\n     Copy OK\n\nTrack  9\n     Filename C:\\Documents and Settings\\NAAM\\Mijn documenten\\Mijn muziek\\09-(Dialogue 5) Ground Crew.wav\n\n     Pre-gap length  0:00:01.10\n\n     Peak level 78.1 %\n     Track quality 99.9 %\n     Test CRC C5D53E85\n     Copy CRC C5D53E85\n     Copy OK\n\nTrack 10\n     Filename C:\\Documents and Settings\\NAAM\\Mijn documenten\\Mijn muziek\\10-Hero with a Wing.wav\n\n     Peak level 62.3 %\n     Track quality 99.9 %\n     Test CRC 5CFBE844\n     Copy CRC 5CFBE844\n     Copy OK\n\nTrack 11\n     Filename C:\\Documents and Settings\\NAAM\\Mijn documenten\\Mijn muziek\\11-(Dialogue 6) Ground Control To Pilot.wav\n\n     Peak level 97.2 %\n     Track quality 100.0 %\n     Test CRC 1886BAAF\n     Copy CRC 1886BAAF\n     Copy OK\n\nTrack 12\n     Filename C:\\Documents and Settings\\NAAM\\Mijn documenten\\Mijn muziek\\12-Ejection.wav\n\n     Peak level 100.0 %\n     Track quality 100.0 %\n     Test CRC 61762F7A\n     Copy CRC 61762F7A\n     Copy OK\n\nTrack 13\n     Filename C:\\Documents and Settings\\NAAM\\Mijn documenten\\Mijn muziek\\13-(Dialogue 7) Interview.wav\n\n     Peak level 96.0 %\n     Track quality 100.0 %\n     Test CRC 1FC30AA5\n     Copy CRC 1FC30AA5\n     Copy OK\n\nTrack 14\n     Filename C:\\Documents and Settings\\NAAM\\Mijn documenten\\Mijn muziek\\14-(Dialogue 8) I Resign.wav\n\n     Peak level 100.0 %\n     Track quality 100.0 %\n     Test CRC B73B0C99\n     Copy CRC B73B0C99\n     Copy OK\n\nTrack 15\n     Filename C:\\Documents and Settings\\NAAM\\Mijn documenten\\Mijn muziek\\15-The Song of the Gremlin (part 2).wav\n\n     Peak level 100.0 %\n     Track quality 100.0 %\n     Test CRC 191F44CC\n     Copy CRC 191F44CC\n     Copy OK\n\nTrack 16\n     Filename C:\\Documents and Settings\\NAAM\\Mijn documenten\\Mijn muziek\\16-(Dialogue 9) Bier Garten.wav\n\n     Peak level 100.0 %\n     Track quality 100.0 %\n     Test CRC 9E390356\n     Copy CRC 9E390356\n     Copy OK\n\nTrack 17\n     Filename C:\\Documents and Settings\\NAAM\\Mijn documenten\\Mijn muziek\\17-Catch A Falling Starfighter.wav\n\n     Peak level 81.2 %\n     Track quality 99.9 %\n     Test CRC 6BB8E99A\n     Copy CRC 6BB8E99A\n     Copy OK\n\nNo errors occured\n\n\nEnd of status report\n","torrent":{"xt":"urn:btih:0bf485c360f8c2ea0fc609784a92b3586410966b","amp;dn":"robert+calvert+-+captain+lockheed+and+the+starfighters+%5B1974-V0%5D","amp;tr":["udp%3A%2F%2Ftracker.openbittorrent.com%3A80","udp%3A%2F%2Fopen.demonii.com%3A1337","udp%3A%2F%2Ftracker.coppersurfer.tk%3A6969","udp%3A%2F%2Fexodus.desync.com%3A6969"],"infoHash":"0bf485c360f8c2ea0fc609784a92b3586410966b","infoHashBuffer":{"type":"Buffer","data":[11,244,133,195,96,248,194,234,15,198,9,120,74,146,179,88,100,16,150,107]},"announce":[],"urlList":[]}}